v -0.07000047 -1.25527918 -0.05807704
v -0.06272307 -1.25606418 -0.04041993
v -0.08259124 -1.25206828 -0.09709645
v -0.07755215 -1.25334167 -0.08302110
v -0.10511545 -1.25272572 -0.08710238
v -0.09550856 -1.25185168 -0.09917974
v -0.12676075 -1.25383246 -0.06949663
v -0.11723755 -1.25318146 -0.07900430
v -0.12789522 -1.25347126 -0.05051909
v -0.12332741 -1.25469148 -0.02564647
v -0.06981432 -1.25556290 -0.02103734
v -0.07495079 -1.25420737 -0.07073927
v -0.11943546 -1.34605420 0.14170408
v -0.12416977 -1.34591889 0.14085451
v -0.12563665 -1.35073769 0.14155816
v -0.11821046 -1.35172582 0.14281581
v -0.07082899 -1.34278369 0.15395094
v -0.07987929 -1.34094310 0.15629017
v -0.08224326 -1.35051990 0.15428858
v -0.06978815 -1.35321307 0.15161307
v -0.10834279 -1.35575747 0.14866565
v -0.10320415 -1.35570872 0.14903447
v -0.10211636 -1.35170746 0.15287052
v -0.11077549 -1.35142219 0.15235084
v -0.15171836 -1.35233831 0.10437314
v -0.14745060 -1.35267806 0.10581483
v -0.14714685 -1.34793413 0.10838766
v -0.15283896 -1.34817660 0.10572181
v -0.13891348 -1.35512710 0.12365189
v -0.13476188 -1.35584784 0.12504023
v -0.13436481 -1.35109222 0.12821771
v -0.14045534 -1.35156417 0.12559445
v -0.08315216 -1.33656645 0.13104312
v -0.08254924 -1.33728409 0.14647853
v -0.06867603 -1.34021688 0.14353400
v -0.06759907 -1.33531213 0.12816374
v -0.06199326 -1.35013223 0.13927230
v -0.07040305 -1.35579813 0.13657500
v -0.06933461 -1.35613871 0.12114502
v -0.06095568 -1.34734929 0.12241166
v -0.08359029 -1.35584402 0.13916017
v -0.08381174 -1.35557950 0.12495641
v -0.09084574 -1.34644032 0.13008334
v -0.09236698 -1.34658086 0.14548053
v -0.11201566 -1.34638238 0.13062207
v -0.11551517 -1.34873390 0.14360204
v -0.10897104 -1.34260070 0.14488639
v -0.10682242 -1.33855700 0.13158189
v -0.10021712 -1.34319341 0.14581399
v -0.09521206 -1.33938146 0.13298589
v -0.09192964 -1.34932256 0.13181275
v -0.09433985 -1.35038066 0.14574389
v -0.10005797 -1.35593677 0.14186604
v -0.09701291 -1.35493720 0.12810288
v -0.10687492 -1.35379934 0.12767842
v -0.10956763 -1.35575831 0.14087477
v -0.11747398 -1.34437442 0.13546956
v -0.11476360 -1.33994341 0.12553681
v -0.12556885 -1.33857167 0.12332965
v -0.12528530 -1.34369147 0.13460256
v -0.11665165 -1.35481191 0.12276150
v -0.11128668 -1.34998488 0.12557748
v -0.11307416 -1.35210824 0.13557643
v -0.11831601 -1.35630786 0.13374953
v -0.12616126 -1.35597646 0.13305636
v -0.12610295 -1.35361123 0.12144949
v -0.13049120 -1.34588480 0.12320429
v -0.13049439 -1.34948981 0.13435230
v -0.14137550 -1.34379292 0.11965898
v -0.14221370 -1.33859575 0.10931135
v -0.14587727 -1.34601080 0.10825148
v -0.14464873 -1.34991109 0.11831143
v -0.13391660 -1.33936107 0.11316050
v -0.13493881 -1.34348643 0.12148101
v -0.13345006 -1.35394812 0.11115683
v -0.13086574 -1.34599972 0.11499967
v -0.13022141 -1.34864962 0.12213060
v -0.13263720 -1.35612047 0.11951419
v -0.14043997 -1.35609710 0.11771690
v -0.14169392 -1.35387933 0.10748931
v -0.15635821 -1.34744966 0.09863565
v -0.15444751 -1.34147251 0.10027763
v -0.15611629 -1.33834672 0.09126908
v -0.15706661 -1.34572744 0.08823397
v -0.14906342 -1.33789134 0.09640905
v -0.14840750 -1.34082806 0.10278445
v -0.14660142 -1.35232735 0.09439120
v -0.14624801 -1.34452033 0.09781244
v -0.14455435 -1.34628356 0.10291941
v -0.14570047 -1.35335720 0.10075338
v -0.15299046 -1.35329592 0.09854581
v -0.15312198 -1.35192275 0.08985888
v -0.06806080 -1.33164811 0.11281972
v -0.08767221 -1.33606756 0.11592435
v -0.07291885 -1.35553336 0.14662246
v -0.06217726 -1.34552157 0.10683057
v -0.08027904 -1.35525024 0.14795047
v -0.08877771 -1.35505712 0.11150301
v -0.07077467 -1.35466349 0.10557604
v -0.09014480 -1.34690487 0.12274971
v -0.10872922 -1.34591091 0.15183288
v -0.10996801 -1.34724915 0.12021732
v -0.11002231 -1.35469306 0.11006221
v -0.10343661 -1.34628367 0.15220152
v -0.10814492 -1.33601987 0.11376119
v -0.12703362 -1.33676004 0.10450844
v -0.12015940 -1.35590351 0.13993727
v -0.12437844 -1.35553825 0.13955870
v -0.12937337 -1.35439420 0.10301846
v -0.13076580 -1.34484518 0.11310413
v -0.13969423 -1.34693885 0.12528041
v -0.14691347 -1.34399045 0.09815864
v -0.14443113 -1.35347474 0.09105644
v -0.13609277 -1.34644520 0.12632804
v -0.14425279 -1.33511937 0.09229939
v -0.15160853 -1.34456599 0.10479222
v -0.15417142 -1.35252225 0.07849656
v -0.15889814 -1.34494078 0.07531509
v -0.14869131 -1.34382331 0.10665670
v -0.15594307 -1.33550096 0.08015201
v -0.08138025 -1.25626433 -0.00746984
v -0.10962155 -1.25653875 -0.01032312
v -0.09489892 -1.25628030 -0.00369378
v -0.12882397 -1.27677941 -0.07225524
v -0.13172540 -1.27723014 -0.05284582
v -0.11484535 -1.27610445 -0.08129849
v -0.09589145 -1.27453661 -0.10318997
v -0.10460954 -1.27539992 -0.09136967
v -0.07893050 -1.27629054 0.00390838
v -0.06905525 -1.27820492 -0.01502951
v -0.09387874 -1.27482891 0.01016968
v -0.11207259 -1.27538729 0.00139069
v -0.06442735 -1.32582426 0.09479032
v -0.06528659 -1.32398605 0.07259312
v -0.08049470 -1.31330991 0.07652960
v -0.08424629 -1.32390845 0.09649797
v -0.10095862 -1.31423509 0.07278742
v -0.10394378 -1.32710993 0.09263261
v -0.11924365 -1.31854713 0.06451886
v -0.12259386 -1.32883525 0.08463724
v -0.13598430 -1.32293653 0.05446416
v -0.14016345 -1.33002019 0.07411603
v -0.15033914 -1.32952321 0.04398714
v -0.15456378 -1.33319724 0.06418178
v -0.15887229 -1.34022391 0.03831280
v -0.16143256 -1.34313571 0.05911847
v -0.05844138 -1.34359300 0.08863105
v -0.06028090 -1.34088397 0.06624493
v -0.06958148 -1.35634804 0.08561119
v -0.07088334 -1.35542107 0.06337992
v -0.08853570 -1.35687268 0.08480732
v -0.08872491 -1.35651350 0.06181815
v -0.15419245 -1.35311520 0.04021971
v -0.15527508 -1.35454798 0.06167132
v -0.10873322 -1.35591817 0.08059438
v -0.10815946 -1.35501456 0.05750328
v -0.12715267 -1.35692322 0.07432552
v -0.12616469 -1.35600817 0.05134603
v -0.14264756 -1.35697973 0.06747159
v -0.14156866 -1.35637248 0.04501934
v -0.07705550 -1.30469501 0.05239955
v -0.09740262 -1.29977334 0.05134590
v -0.11558466 -1.30499303 0.04176347
v -0.13173510 -1.31276739 0.03018145
v -0.14419949 -1.32432878 0.01931361
v -0.15439184 -1.33606005 0.01404947
v -0.13217597 -1.29907501 0.00012384
v -0.13903543 -1.32093847 -0.00866117
v -0.14650019 -1.33475244 -0.01092219
v -0.13469036 -1.31877136 -0.03648908
v -0.13956805 -1.33318150 -0.03656951
v -0.12555161 -1.31834543 -0.08077558
v -0.13181138 -1.33399379 -0.08298865
v -0.13561846 -1.33195484 -0.06196660
v -0.12968029 -1.31782663 -0.06125422
v -0.13146232 -1.29849660 -0.03134819
v -0.12781273 -1.29806519 -0.05712068
v -0.12193719 -1.29719448 -0.07545323
v -0.12556988 -1.33476651 -0.09752867
v -0.12068030 -1.31839395 -0.09536751
v -0.11272963 -1.31727040 -0.10847175
v -0.11473165 -1.33440912 -0.10830620
v -0.09541464 -1.31774235 -0.11568644
v -0.09709492 -1.33537173 -0.11367405
v -0.07872627 -1.31980681 -0.10586157
v -0.07948358 -1.33682680 -0.10514384
v -0.10833896 -1.29554129 -0.09960806
v -0.11481608 -1.29693377 -0.08740176
v -0.09647169 -1.29497218 -0.10868833
v -0.08101270 -1.29648829 -0.10099344
v -0.07696087 -1.29776573 -0.08227885
v -0.07295895 -1.32068241 -0.08491841
v -0.07062451 -1.33738780 -0.08641700
v -0.06664538 -1.32179856 0.04618476
v -0.06599426 -1.33615947 0.04056360
v -0.11450921 -1.28919971 0.02051330
v -0.09445601 -1.28631508 0.02958078
v -0.07492024 -1.29484749 0.02121583
v -0.06507161 -1.31813037 0.01742745
v -0.06930061 -1.33396935 0.01222105
v -0.07055306 -1.33379650 -0.01345705
v -0.06448018 -1.31955850 -0.01055110
v -0.07483782 -1.34769249 0.03719327
v -0.07896876 -1.34166324 0.00950338
v -0.07936484 -1.34130061 -0.01583968
v -0.06932838 -1.33502376 -0.03626456
v -0.06530593 -1.32069755 -0.03411949
v -0.06930515 -1.33576488 -0.05455731
v -0.06903215 -1.32016230 -0.05311312
v -0.07130441 -1.32018101 -0.06834145
v -0.06909889 -1.33667421 -0.06997193
v -0.07040063 -1.29911172 -0.05376255
v -0.07340856 -1.29824531 -0.06758744
v -0.06630311 -1.30027652 -0.03401594
v -0.06602194 -1.29868436 -0.00932344
v -0.15075208 -1.34925067 0.01501197
v -0.14523926 -1.34589660 -0.01021409
v -0.13804187 -1.34323657 -0.03512279
v -0.13303970 -1.34398401 -0.05996623
v -0.12733780 -1.34570837 -0.07982869
v -0.12097106 -1.34635139 -0.09232663
v -0.09708212 -1.34527349 -0.10537717
v -0.11166773 -1.34584415 -0.10201809
v -0.08403160 -1.34590113 -0.09970095
v -0.07791342 -1.34777033 -0.08458390
v -0.07547555 -1.34838009 -0.07060860
v -0.07695889 -1.34441471 -0.03848035
v -0.07540327 -1.34746349 -0.05606969
v -0.06148953 -1.27931702 -0.03696228
v -0.06709112 -1.27852201 -0.05577959
v -0.07248739 -1.27752388 -0.06865354
v -0.08171643 -1.27541709 -0.09751518
v -0.07766388 -1.27669251 -0.08083936
v -0.09004404 -1.35177088 0.03464330
v -0.10828372 -1.35164118 0.03027731
v -0.12523001 -1.35246682 0.02458410
v -0.13932735 -1.35277665 0.01926924
v -0.13561665 -1.34975600 -0.00695969
v -0.12291602 -1.34975541 -0.00303269
v -0.10704932 -1.34944952 0.00162463
v -0.09125844 -1.34645188 0.00639638
v -0.12978017 -1.34827256 -0.03183817
v -0.11856077 -1.34914553 -0.02808528
v -0.10383084 -1.34928977 -0.02456448
v -0.09030586 -1.34688497 -0.01925952
v -0.08682477 -1.34982312 -0.04217164
v -0.09866475 -1.35100698 -0.04771655
v -0.11253819 -1.35029840 -0.05090215
v -0.12325370 -1.34887433 -0.05549960
v -0.11763530 -1.34932363 -0.07397237
v -0.10747074 -1.35036027 -0.06865161
v -0.09532277 -1.35133934 -0.06492250
v -0.08505782 -1.35094965 -0.05987671
v -0.11272077 -1.34926832 -0.08484411
v -0.09792083 -1.34872019 -0.09685238
v -0.10689902 -1.34904683 -0.09279613
v -0.08947485 -1.34941578 -0.09393559
v -0.08598616 -1.35039508 -0.08334500
v -0.08496115 -1.35098505 -0.07209220
v -0.09393164 -1.35076869 -0.07513641
v -0.09338503 -1.35026908 -0.08332102
v -0.10468736 -1.35006940 -0.07874998
v -0.10157792 -1.34954119 -0.08637410
v -0.09353276 -1.34971249 -0.08969238
v -0.09802771 -1.34935021 -0.09104848
v -0.12387275 -1.27869368 -0.02161346
f 13 15 16
f 17 19 20
f 21 23 24
f 25 27 28
f 29 31 32
f 33 35 36
f 37 39 40
f 38 42 39
f 43 34 33
f 45 47 48
f 48 49 50
f 51 53 54
f 55 53 56
f 57 59 60
f 61 63 64
f 66 64 65
f 60 67 68
f 69 71 72
f 73 69 74
f 75 77 78
f 79 75 78
f 81 83 84
f 85 82 86
f 87 89 90
f 91 87 90
f 17 34 18
f 36 94 33
f 95 37 20
f 40 93 36
f 41 95 97
f 98 39 42
f 34 19 18
f 100 42 43
f 101 46 24
f 102 55 45
f 104 47 101
f 50 105 48
f 22 52 23
f 100 50 51
f 22 56 53
f 54 103 98
f 13 60 14
f 105 59 58
f 107 63 16
f 102 58 62
f 107 65 64
f 66 103 61
f 14 68 15
f 110 66 67
f 111 72 32
f 112 80 71
f 74 111 114
f 106 70 73
f 30 77 31
f 73 110 106
f 29 78 30
f 80 109 75
f 116 81 28
f 117 84 118
f 86 116 119
f 115 83 85
f 26 89 27
f 112 85 88
f 25 90 26
f 113 92 117
f 16 108 107
f 97 20 19
f 23 101 24
f 28 119 116
f 32 114 111
f 37 36 35
f 43 41 44
f 56 45 55
f 51 49 52
f 57 62 58
f 68 66 65
f 72 80 79
f 74 76 73
f 81 92 91
f 86 88 85
f 20 35 17
f 40 99 96
f 97 44 41
f 33 100 43
f 46 21 24
f 48 102 45
f 104 52 49
f 54 100 51
f 13 63 57
f 61 102 62
f 108 68 65
f 59 110 67
f 72 29 32
f 70 112 71
f 114 77 74
f 75 110 76
f 28 91 25
f 120 84 83
f 119 89 86
f 113 88 87
f 7 125 9
f 124 8 126
f 6 128 5
f 121 130 11
f 123 129 121
f 132 123 122
f 133 135 136
f 135 138 136
f 137 140 138
f 139 142 140
f 141 144 142
f 143 146 144
f 147 134 133
f 149 148 147
f 151 150 149
f 153 146 145
f 155 152 151
f 157 156 155
f 159 158 157
f 154 160 159
f 161 137 135
f 162 139 137
f 163 141 139
f 164 143 141
f 165 145 143
f 167 165 164
f 168 166 165
f 168 171 169
f 172 174 175
f 174 170 175
f 168 176 170
f 170 177 175
f 175 178 172
f 180 182 179
f 184 181 183
f 185 184 183
f 187 180 188
f 181 189 183
f 183 190 185
f 190 192 185
f 193 185 192
f 134 161 135
f 148 194 134
f 164 196 167
f 163 197 196
f 161 197 162
f 199 161 194
f 195 199 194
f 200 202 199
f 150 195 148
f 203 200 195
f 204 201 200
f 201 207 202
f 206 209 207
f 192 211 193
f 212 210 213
f 209 214 207
f 214 202 207
f 215 199 202
f 216 145 166
f 217 166 169
f 218 169 171
f 219 171 174
f 219 173 220
f 173 221 220
f 184 223 182
f 186 222 184
f 193 224 186
f 193 226 225
f 227 208 206
f 205 206 201
f 131 196 197
f 198 131 197
f 215 129 198
f 214 130 215
f 212 229 214
f 230 213 231
f 232 191 190
f 232 189 127
f 187 127 189
f 128 188 126
f 177 124 178
f 152 203 150
f 156 234 152
f 158 235 156
f 160 236 158
f 153 237 160
f 238 216 217
f 239 237 238
f 240 236 239
f 241 235 240
f 204 234 241
f 242 217 218
f 243 238 242
f 244 239 243
f 245 240 244
f 205 241 245
f 245 227 205
f 244 246 245
f 244 248 247
f 242 248 243
f 218 249 242
f 250 219 220
f 249 251 248
f 251 247 248
f 247 253 246
f 246 228 227
f 220 254 250
f 223 255 256
f 222 257 255
f 257 225 258
f 225 259 258
f 260 258 259
f 250 262 251
f 261 262 263
f 255 264 265
f 265 261 263
f 258 264 257
f 256 265 263
f 99 147 96
f 99 151 149
f 103 151 98
f 109 155 103
f 113 157 109
f 117 159 113
f 118 154 117
f 118 144 146
f 120 142 144
f 115 140 142
f 106 138 140
f 138 94 136
f 93 136 94
f 96 133 93
f 232 4 233
f 127 3 232
f 230 2 229
f 1 231 12
f 229 11 130
f 176 167 266
f 132 167 196
f 176 125 177
f 10 125 266
f 122 266 132
f 126 5 128
f 180 173 172
f 188 172 178
f 208 210 209
f 210 191 213
f 223 179 182
f 228 211 208
f 231 191 233
f 126 178 124
f 221 256 254
f 226 253 259
f 259 252 260
f 254 263 262
f 251 260 252
f 12 233 4
f 13 14 15
f 17 18 19
f 21 22 23
f 25 26 27
f 29 30 31
f 33 34 35
f 37 38 39
f 38 41 42
f 43 44 34
f 45 46 47
f 48 47 49
f 51 52 53
f 55 54 53
f 57 58 59
f 61 62 63
f 66 61 64
f 60 59 67
f 69 70 71
f 73 70 69
f 75 76 77
f 79 80 75
f 81 82 83
f 85 83 82
f 87 88 89
f 91 92 87
f 17 35 34
f 36 93 94
f 95 38 37
f 40 96 93
f 41 38 95
f 98 99 39
f 34 44 19
f 100 98 42
f 101 47 46
f 102 103 55
f 104 49 47
f 50 94 105
f 22 53 52
f 100 94 50
f 22 21 56
f 54 55 103
f 13 57 60
f 105 106 59
f 107 64 63
f 102 105 58
f 107 108 65
f 66 109 103
f 14 60 68
f 110 109 66
f 111 69 72
f 112 113 80
f 74 69 111
f 106 115 70
f 30 78 77
f 73 76 110
f 29 79 78
f 80 113 109
f 116 82 81
f 117 92 84
f 86 82 116
f 115 120 83
f 26 90 89
f 112 115 85
f 25 91 90
f 113 87 92
f 16 15 108
f 97 95 20
f 23 104 101
f 28 27 119
f 32 31 114
f 37 40 36
f 43 42 41
f 56 46 45
f 51 50 49
f 57 63 62
f 68 67 66
f 72 71 80
f 74 77 76
f 81 84 92
f 86 89 88
f 20 37 35
f 40 39 99
f 97 19 44
f 33 94 100
f 46 56 21
f 48 105 102
f 104 23 52
f 54 98 100
f 13 16 63
f 61 103 102
f 108 15 68
f 59 106 110
f 72 79 29
f 70 115 112
f 114 31 77
f 75 109 110
f 28 81 91
f 120 118 84
f 119 27 89
f 113 112 88
f 7 124 125
f 124 7 8
f 6 127 128
f 121 129 130
f 123 131 129
f 132 131 123
f 133 134 135
f 135 137 138
f 137 139 140
f 139 141 142
f 141 143 144
f 143 145 146
f 147 148 134
f 149 150 148
f 151 152 150
f 153 154 146
f 155 156 152
f 157 158 156
f 159 160 158
f 154 153 160
f 161 162 137
f 162 163 139
f 163 164 141
f 164 165 143
f 165 166 145
f 167 168 165
f 168 169 166
f 168 170 171
f 172 173 174
f 174 171 170
f 168 167 176
f 170 176 177
f 175 177 178
f 180 181 182
f 184 182 181
f 185 186 184
f 187 181 180
f 181 187 189
f 183 189 190
f 190 191 192
f 193 186 185
f 134 194 161
f 148 195 194
f 164 163 196
f 163 162 197
f 161 198 197
f 199 198 161
f 195 200 199
f 200 201 202
f 150 203 195
f 203 204 200
f 204 205 201
f 201 206 207
f 206 208 209
f 192 210 211
f 212 209 210
f 209 212 214
f 214 215 202
f 215 198 199
f 216 153 145
f 217 216 166
f 218 217 169
f 219 218 171
f 219 174 173
f 173 179 221
f 184 222 223
f 186 224 222
f 193 225 224
f 193 211 226
f 227 228 208
f 205 227 206
f 131 132 196
f 198 129 131
f 215 130 129
f 214 229 130
f 212 230 229
f 230 212 213
f 232 233 191
f 232 190 189
f 187 128 127
f 128 187 188
f 177 125 124
f 152 234 203
f 156 235 234
f 158 236 235
f 160 237 236
f 153 216 237
f 238 237 216
f 239 236 237
f 240 235 236
f 241 234 235
f 204 203 234
f 242 238 217
f 243 239 238
f 244 240 239
f 245 241 240
f 205 204 241
f 245 246 227
f 244 247 246
f 244 243 248
f 242 249 248
f 218 219 249
f 250 249 219
f 249 250 251
f 251 252 247
f 247 252 253
f 246 253 228
f 220 221 254
f 223 222 255
f 222 224 257
f 257 224 225
f 225 226 259
f 260 261 258
f 250 254 262
f 261 260 262
f 255 257 264
f 265 264 261
f 258 261 264
f 256 255 265
f 99 149 147
f 99 98 151
f 103 155 151
f 109 157 155
f 113 159 157
f 117 154 159
f 118 146 154
f 118 120 144
f 120 115 142
f 115 106 140
f 106 105 138
f 138 105 94
f 93 133 136
f 96 147 133
f 232 3 4
f 127 6 3
f 230 1 2
f 1 230 231
f 229 2 11
f 132 266 167
f 176 266 125
f 10 9 125
f 122 10 266
f 126 8 5
f 180 179 173
f 188 180 172
f 208 211 210
f 210 192 191
f 223 221 179
f 228 226 211
f 231 213 191
f 126 188 178
f 221 223 256
f 226 228 253
f 259 253 252
f 254 256 263
f 251 262 260
f 12 231 233
